<?xml version="1.0" encoding="UTF-8"?>
<svg width="19px" height="19px" viewBox="0 0 19 19" version="1.1" xmlns="http://www.w3.org/2000/svg" xmlns:xlink="http://www.w3.org/1999/xlink">
    <!-- Generator: Sketch 59.1 (86144) - https://sketch.com -->
    <title>Icon</title>
    <desc>Created with Sketch.</desc>
    <g id="Symbols" stroke="none" stroke-width="1" fill="none" fill-rule="evenodd">
        <g id="_Icons-/-24px--/-Search" transform="translate(-3.000000, -3.000000)" fill="#000000">
            <path d="M10.2,3 C14.1764502,3 17.4,6.2235498 17.4,10.2 C17.4,11.8276183 16.859932,13.3290971 15.9492228,14.5350093 L21.0954905,19.6812769 L19.6812769,21.0954905 L14.5350093,15.9492228 C13.3290971,16.859932 11.8276183,17.4 10.2,17.4 C6.2235498,17.4 3,14.1764502 3,10.2 C3,6.2235498 6.2235498,3 10.2,3 Z M10.2,5 C7.3281193,5 5,7.3281193 5,10.2 C5,13.0718807 7.3281193,15.4 10.2,15.4 C13.0718807,15.4 15.4,13.0718807 15.4,10.2 C15.4,7.3281193 13.0718807,5 10.2,5 Z" id="Icon"></path>
        </g>
    </g>
</svg>